<svg width="89" height="29" viewBox="0 0 89 29" fill="none" xmlns="http://www.w3.org/2000/svg">
<path d="M4.1 20.525L0 15L6.05 9.475H11.425L5.35 15L9.475 20.525H4.1ZM78.7801 0L67.0301 28.425H62.9051L74.6301 0H78.7801ZM78.9082 9.475H84.2832L88.3832 15L82.3332 20.525H76.9582L83.0332 15L78.9082 9.475Z" fill="white"/>
<path d="M27.8057 6.2C29.4223 6.2 30.814 6.49167 31.9807 7.075C33.164 7.64167 34.064 8.45 34.6807 9.5C35.314 10.5333 35.6307 11.75 35.6307 13.15C35.6307 13.6333 35.5723 14.2417 35.4557 14.975C35.1557 16.6917 34.5057 18.2167 33.5057 19.55C32.5223 20.8833 31.264 21.9167 29.7307 22.65C28.214 23.3833 26.539 23.75 24.7057 23.75H18.1307L21.2307 6.2H27.8057ZM25.0807 20.1C26.6973 20.1 28.039 19.65 29.1057 18.75C30.1723 17.85 30.839 16.5917 31.1057 14.975C31.189 14.475 31.2307 14.0583 31.2307 13.725C31.2307 12.4917 30.8557 11.5417 30.1057 10.875C29.3557 10.1917 28.289 9.85 26.9057 9.85H24.8557L23.0557 20.1H25.0807ZM59.2697 6.2L56.1697 23.75H51.8947L53.7697 13.225L47.9697 23.75H44.5197L42.4197 13.175L40.5697 23.75H36.2947L39.3947 6.2H44.4447L47.2447 18.35L54.2447 6.2H59.2697Z" fill="#1400F5"/>
</svg>
